<svg xmlns="http://www.w3.org/2000/svg" version="1.1" xmlns:xlink="http://www.w3.org/1999/xlink" xmlns:svgjs="http://svgjs.dev/svgjs" width="2000" height="2250" viewBox="0 0 2000 2250"><g transform="matrix(1,0,0,1,3.410605131648481e-13,0)"><svg viewBox="0 0 320 360" data-background-color="#282634" preserveAspectRatio="xMidYMid meet" height="2250" width="2000" xmlns="http://www.w3.org/2000/svg" xmlns:xlink="http://www.w3.org/1999/xlink"><g id="tight-bounds" transform="matrix(1,0,0,1,0,0)"><svg viewBox="0 0 320 360" height="360" width="320"><g><svg></svg></g><g><svg viewBox="0 0 320 360" height="360" width="320"><g><path xmlns="http://www.w3.org/2000/svg" d="M20.961 227.22l3.726 4.658-1.863-6.056c-0.466-2.795-3.726 0.466-1.863 1.398M25.153 224.425c1.397 2.329 2.795 4.658 2.795 6.987 0 3.261 2.795 4.658 5.123 5.589-3.261-3.726-5.124-13.974-7.918-12.576M204.017 26.929c7.918 0 15.371-0.932 23.756 0.931 20.495 5.124 37.729 15.371 49.374 29.811l32.606 52.169c1.397 13.042 4.192 27.482 3.726 43.319 3.261 0 2.795-4.658 6.521-5.59-3.726 9.316-5.59 20.961-6.521 34.469-2.329-7.453 0-18.632 0.466-24.687-3.261 5.124-5.124 1.397-5.124-0.932 0.466-3.726-1.397-3.261-2.795-4.658-5.124-4.658-8.384-9.782-12.11-17.7 2.329-6.055 2.795-14.905-4.658-19.563-2.329-1.397-5.124-3.726-6.521-7.453-1.863-5.124-5.124-11.179-4.193-19.097 0.466-2.329-6.987 5.124-11.179 1.863-18.166-12.576-36.332-27.016-58.224-39.127-11.645 0-20.029-4.192-24.221-9.316-3.726-4.658-0.932-10.713 4.658-11.179 3.261 0 6.987-0.932 9.782 0.932 0.466-1.863 2.329-4.192 4.657-4.192M157.904 16.215l0.932 0.466c4.658 0.932 6.987 7.453 12.11 5.124 0 3.261 0.466 6.521-0.466 8.85-1.397 3.726-5.59 3.726-8.85 3.726-31.208-1.863-49.374 11.179-68.471 22.358-5.124 3.261-10.713 5.59-14.906 9.782-20.029 18.632-41.921 35.866-47.045 70.335l-4.192 38.195c-0.466 4.192-5.124 8.384-4.192 13.508l3.26 22.824c-3.261-3.261-5.124 0.932-4.192 2.795 0.466 1.397 2.329 6.055 5.124 1.863 3.726 6.987 7.453 20.495 12.576 26.55 15.837 18.632 36.332 35.4 53.101 52.169 4.192-0.932 7.453-0.932 8.384-3.727 1.397 2.795-1.397 5.59-3.726 6.056 7.453 4.658 15.837 8.85 27.016 9.781 14.44 0.932 27.948 3.261 40.524 6.522 6.521-1.863 13.042-2.795 20.029-3.261 2.329 0 3.726-3.726 6.521-4.658l0.466-4.658c2.795 4.192 2.329-1.397 0.466-4.192 3.261 2.795 4.192 5.124 5.589 6.987 0-1.397 3.726-6.521 3.727-0.466l0.931-6.055c1.397-0.932 1.863 5.124 3.261 0.931 1.397-4.192 4.192-0.932 6.987-2.329-0.932 1.863-0.466 5.59 2.794 3.261l3.727-3.261c2.329 5.59 6.055 3.261 7.918 2.329 20.495-13.042 40.99-28.413 60.553-43.784l-0.466 6.055 2.329-7.453c2.329 2.329 4.192 0.466 5.124-0.931 2.795-4.658 6.521-9.316 12.577-13.508-7.453 20.029-16.303 35.866-27.482 48.908l-4.658 5.59c0 3.261-0.932 7.453-4.658 7.918-1.863 0.466-5.59-0.932-8.384 1.863-1.397 1.863 3.261 5.59-0.466 2.795-3.261-2.329-6.521 0-10.248 0.932-2.795 0.932 1.863 3.726 2.795 5.589 0.932 1.863 1.863 3.726 1.398 6.056l-5.124-5.59c-6.055 3.261-9.782 9.316-14.906 13.974-2.329 1.863-1.397 5.124-1.397 7.918-3.261 0-6.987-0.932-8.85 0.932-1.397 1.863-0.932 4.658-0.932 7.453-4.658-0.466-5.124-7.453-9.315-6.056-4.192 0.932-8.85 1.397-12.577 3.727 2.795 5.59-4.658 2.329-3.726 3.26-6.987-4.192-13.042-7.453-20.495-4.658-15.837-5.124-35.4-2.795-49.84-0.931 0-2.329 0.466-4.658-0.466-5.124-0.932 2.329-3.726 1.397-3.26 1.397-8.85-6.055-17.7-9.782-27.016-14.905-8.384 0.932-16.303-3.261-18.632-5.59-6.521-6.055-13.974-2.795-20.029-4.192-13.042-3.261-17.7-16.769-19.098-26.084-0.932-4.658-4.658-6.521-6.055-6.056-6.055-19.563-15.371-37.263-22.824-55.429-1.863-4.658-1.397-9.316-1.397-14.44 2.329 0.932 4.658 0.466 4.192-2.794-2.329-15.371-7.918-27.016-13.974-38.195 3.261-15.837 3.726-34.469 11.179-48.443 6.521-12.576 18.632-19.098 27.016-29.811 2.795-3.726 2.795-8.85 5.59-12.11 9.316-9.316 18.632-19.098 28.879-27.482 4.658-3.726 10.247 0 17.234-1.397 2.329-8.384 11.645-15.837 20.495-13.508 3.726 0.932 11.179-8.85 13.508-9.782 3.726-1.397 1.863 3.726 1.863 6.987 8.85-6.987 20.961-10.713 32.14-14.906" fill="#b10dc9" fill-rule="nonzero" stroke="none" stroke-width="1" stroke-linecap="butt" stroke-linejoin="miter" stroke-miterlimit="10" stroke-dasharray="" stroke-dashoffset="0" font-family="none" font-weight="none" font-size="none" text-anchor="none" style="mix-blend-mode: normal" data-fill-palette-color="tertiary"></path></g><g transform="matrix(1,0,0,1,64,94.126)"><svg viewBox="0 0 192 171.748" height="171.748" width="192"><g><svg viewBox="0 0 192 171.748" height="171.748" width="192"><g><svg viewBox="0 0 192 171.748" height="171.748" width="192"><g id="textblocktransform"><svg viewBox="0 0 192 171.748" height="171.748" width="192" id="textblock"><g><svg viewBox="0 0 192 171.748" height="171.748" width="192"><path d="M191.55 36.837C190.648 19.009 188.075 14.053 188.075 14.053 180.177-4.309 170.321-0.351 161.466 2.287 145.832 2.394 130.262 6.316 114.664 8.42 81.926 8.741 48.907 3.464 16.331 16.478 13.271 20.471-3.175 17.262 0.544 39.119 1.519 48.211 5.076 58.301 4.967 66.644 5.455 68.106 6.132 64.754 6.42 66.858 7.431 72.527 9.083 69.853 10.437 73.205 8.551 82.154 9.905 89.606 11.195 97.414 8.921 99.446 6.005 98.484 4.696 105.222 4.561 110.107 3.83 109.18 3.027 108.966 2.44 108.824 1.257 109.358 1.456 110.892 2.133 116.133-0.774 119.164 1.05 124.298-0.205 129.86 1.916 134.673 1.627 140.699 1.591 141.911 1.79 142.945 2.106 143.23 3.505 144.764 1.465 147.759 1.682 151.003 16.033 173.18 31.604 157.849 46.308 168.046 50.126 160.915 47.256 170.578 48.781 169.08 49.972 167.333 50.839 174.571 52.184 170.471 52.392 169.294 52.076 166.513 52.816 167.048 53.204 167.333 53.547 167.262 53.601 165.622 53.682 163.161 52.969 164.695 52.78 163.411 54.829 156.922 54.323 172.36 56.246 171.719 56.156 169.829 55.596 167.119 56.742 167.476 57.88 164.766 57.916 162.52 58.927 168.617 58.963 169.936 59.143 170.863 59.432 171.505 62.591 164.873 65.732 173.858 69.045 170.863 71.076 167.583 73.026 172.646 75.084 171.398 75.806 170.399 76.537 168.617 77.232 171.612 85.744 172.253 94.815 169.579 102.885 171.719 124.449 167.725 147.493 173.359 170.23 168.082 175.592 166.05 181.161 163.161 186.387 160.844 186.387 160.844 190.621 154.497 190.621 125.974S191.523 101.015 191.659 78.303C191.794 55.591 192.426 54.664 191.523 36.837Z" opacity="1" fill="#b10dc9" data-fill-palette-color="tertiary"></path><g transform="matrix(1,0,0,1,27.072000000000003,19.1)"><svg width="137.856" viewBox="1.5499999523162842 -39.79999923706055 41.60000228881836 40.29999923706055" height="133.548" data-palette-color="#282634"><path d="M24.15-39.8Q29.75-39.8 34.08-37.33 38.4-34.85 40.78-30.45 43.15-26.05 43.15-20.5L43.15-20.5Q43.15-14.8 39.58-9.98 36-5.15 30.7-2.33 25.4 0.5 20.6 0.5L20.6 0.5Q18.3 0.5 16.05 0.25L16.05 0.25Q12.3 0 10.3 0L10.3 0 2.4 0 2.4-2.8 7.1-6.5 7.1-34.35 1.55-36.05 3.2-39.3 10.25-39.3Q14.85-39.3 19.25-39.6L19.25-39.6Q22.65-39.8 24.15-39.8L24.15-39.8ZM22.05-4.15Q25.2-4.15 27.78-5.95 30.35-7.75 31.83-10.95 33.3-14.15 33.3-18.15L33.3-18.15Q33.3-22.95 31.88-26.83 30.45-30.7 27.53-33.02 24.6-35.35 20.3-35.35L20.3-35.35Q18.05-35.35 16.15-34.15L16.15-34.15 16.15-5.1Q18.7-4.15 22-4.15L22-4.15 22.05-4.15Z" opacity="1" transform="matrix(1,0,0,1,0,0)" fill="#282634" class="undefined-text-0" data-fill-palette-color="quaternary" id="text-0"></path></svg></g></svg></g></svg></g></svg></g><g></g></svg></g></svg></g></svg></g><defs></defs></svg><rect width="320" height="360" fill="none" stroke="none" visibility="hidden"></rect></g></svg></g></svg>